PathFileType	4	(X/Y/Z)	 New Session 103.trc
DataRate	CameraRate	NumFrames	NumMarkers	Units	OrigDataRate	OrigDataStartFrame	OrigNumFrames
100	100	24	14	m	100	233	620
Frame#	Time	C7			T8			IJ			PX			AA			AC			AI			TS			SC			GH			LE			ME			US			RS			
		X1	Y1	Z1	X2	Y2	Z2	X3	Y3	Z3	X4	Y4	Z4	X5	Y5	Z5	X6	Y6	Z6	X7	Y7	Z7	X8	Y8	Z8	X9	Y9	Z9	X10	Y10	Z10	X11	Y11	Z11	X12	Y12	Z12	X13	Y13	Z13	X14	Y14	Z14	
233	2.3300	0.028111	0.098541	0.162683	0.021058	-0.116644	0.228422	0.000919	-0.000369	-0.002881	-0.003667	-0.141592	-0.073500	0.223513	-0.010245	0.136041	0.174712	0.036056	0.067006	0.108371	0.017454	0.197297	0.103947	-0.100276	0.229216	0.026147	0.006866	0.001770	0.235313	0.001968	0.095103	0.279187	-0.282489	0.003579	0.192800	-0.310164	-0.024022	0.331839	-0.336379	-0.269458	0.386907	-0.289721	-0.239742	
234	2.3400	0.028164	0.098548	0.162666	0.021101	-0.116591	0.228582	0.001009	-0.000365	-0.002895	-0.003634	-0.141590	-0.073500	0.223551	-0.010287	0.136017	0.174768	0.036116	0.067052	0.108467	0.017410	0.197270	0.104048	-0.100257	0.229229	0.026241	0.006890	0.001738	0.235355	0.001993	0.095130	0.280075	-0.281582	0.002480	0.193689	-0.309745	-0.025177	0.331470	-0.324914	-0.272387	0.385754	-0.278270	-0.241204	
235	2.3500	0.028211	0.098548	0.162648	0.021150	-0.116536	0.228753	0.001091	-0.000359	-0.002906	-0.003596	-0.141606	-0.073473	0.223584	-0.010328	0.135994	0.174813	0.036179	0.067104	0.108558	0.017359	0.197246	0.104161	-0.100243	0.229233	0.026324	0.006920	0.001704	0.235389	0.002034	0.095158	0.281075	-0.280624	0.001340	0.194624	-0.309237	-0.026421	0.330961	-0.313392	-0.274828	0.384440	-0.266781	-0.242320	
236	2.3600	0.028254	0.098543	0.162625	0.021204	-0.116481	0.228924	0.001162	-0.000350	-0.002916	-0.003547	-0.141655	-0.073414	0.223619	-0.010361	0.135972	0.174816	0.036217	0.067158	0.108639	0.017305	0.197230	0.104281	-0.100232	0.229220	0.026399	0.006936	0.001679	0.235413	0.002090	0.095190	0.282159	-0.279604	0.000144	0.195616	-0.308632	-0.027743	0.330211	-0.301667	-0.276864	0.382982	-0.255282	-0.243068	
237	2.3700	0.028292	0.098539	0.162597	0.021264	-0.116429	0.229084	0.001222	-0.000339	-0.002926	-0.003487	-0.141734	-0.073327	0.223657	-0.010384	0.135952	0.174752	0.036214	0.067203	0.108707	0.017253	0.197221	0.104397	-0.100226	0.229185	0.026470	0.006933	0.001660	0.235424	0.002161	0.095218	0.283278	-0.278510	-0.001128	0.196675	-0.307925	-0.029130	0.329241	-0.289809	-0.278567	0.381377	-0.243810	-0.243465	
238	2.3800	0.028327	0.098540	0.162566	0.021328	-0.116381	0.229220	0.001270	-0.000324	-0.002939	-0.003428	-0.141823	-0.073235	0.223701	-0.010393	0.135929	0.174650	0.036195	0.067235	0.108753	0.017209	0.197224	0.104505	-0.100223	0.229121	0.026537	0.006917	0.001641	0.235427	0.002249	0.095228	0.284421	-0.277335	-0.002470	0.197803	-0.307123	-0.030574	0.328077	-0.277943	-0.279959	0.379606	-0.232392	-0.243541	
239	2.3900	0.028358	0.098551	0.162534	0.021398	-0.116339	0.229326	0.001306	-0.000304	-0.002955	-0.003381	-0.141901	-0.073158	0.223753	-0.010389	0.135894	0.174570	0.036210	0.067257	0.108777	0.017183	0.197239	0.104603	-0.100227	0.229027	0.026593	0.006903	0.001618	0.235430	0.002351	0.095208	0.285580	-0.276091	-0.003866	0.198989	-0.306245	-0.032070	0.326717	-0.266157	-0.281027	0.377643	-0.221053	-0.243310	
240	2.4000	0.028386	0.098568	0.162504	0.021474	-0.116304	0.229398	0.001332	-0.000281	-0.002978	-0.003346	-0.141967	-0.073096	0.223813	-0.010369	0.135833	0.174540	0.036284	0.067269	0.108790	0.017170	0.197257	0.104693	-0.100239	0.228901	0.026632	0.006899	0.001585	0.235440	0.002470	0.095160	0.286739	-0.274804	-0.005297	0.200211	-0.305313	-0.033618	0.325156	-0.254492	-0.281750	0.375466	-0.209815	-0.242762	
241	2.4100	0.028413	0.098586	0.162472	0.021559	-0.116276	0.229436	0.001351	-0.000253	-0.003007	-0.003319	-0.142032	-0.073038	0.223880	-0.010330	0.135744	0.174544	0.036404	0.067272	0.108814	0.017161	0.197264	0.104784	-0.100259	0.228741	0.026654	0.006901	0.001539	0.235459	0.002608	0.095095	0.287891	-0.273498	-0.006739	0.201444	-0.304354	-0.035216	0.323407	-0.242965	-0.282127	0.373094	-0.198714	-0.241880	
242	2.4200	0.028439	0.098598	0.162438	0.021653	-0.116255	0.229443	0.001366	-0.000224	-0.003041	-0.003294	-0.142105	-0.072976	0.223950	-0.010276	0.135635	0.174553	0.036551	0.067267	0.108858	0.017145	0.197252	0.104890	-0.100287	0.228547	0.026671	0.006903	0.001484	0.235484	0.002771	0.095021	0.289042	-0.272183	-0.008182	0.202662	-0.303391	-0.036864	0.321484	-0.231548	-0.282149	0.370578	-0.187803	-0.240664	
243	2.4300	0.028464	0.098603	0.162402	0.021757	-0.116240	0.229422	0.001381	-0.000194	-0.003080	-0.003269	-0.142173	-0.072926	0.224020	-0.010216	0.135515	0.174552	0.036705	0.067255	0.108923	0.017116	0.197217	0.105020	-0.100322	0.228322	0.026696	0.006900	0.001429	0.235517	0.002954	0.094939	0.290184	-0.270862	-0.009619	0.203843	-0.302437	-0.038557	0.319371	-0.220194	-0.281788	0.367971	-0.177126	-0.239120	
244	2.4400	0.028490	0.098603	0.162365	0.021874	-0.116230	0.229377	0.001395	-0.000167	-0.003124	-0.003243	-0.142224	-0.072902	0.224086	-0.010161	0.135389	0.174544	0.036854	0.067236	0.109003	0.017078	0.197161	0.105183	-0.100359	0.228076	0.026727	0.006896	0.001378	0.235556	0.003143	0.094844	0.291285	-0.269538	-0.011050	0.204970	-0.301498	-0.040283	0.317052	-0.208925	-0.281037	0.365307	-0.166717	-0.237264	
245	2.4500	0.028519	0.098605	0.162326	0.022004	-0.116222	0.229311	0.001409	-0.000144	-0.003173	-0.003214	-0.142258	-0.072896	0.224156	-0.010111	0.135250	0.174539	0.036988	0.067204	0.109092	0.017043	0.197087	0.105375	-0.100390	0.227829	0.026756	0.006898	0.001321	0.235599	0.003327	0.094724	0.292327	-0.268220	-0.012478	0.206038	-0.300561	-0.042027	0.314537	-0.197814	-0.279915	0.362595	-0.156595	-0.235117	
246	2.4600	0.028552	0.098616	0.162285	0.022146	-0.116217	0.229229	0.001422	-0.000128	-0.003226	-0.003180	-0.142285	-0.072889	0.224245	-0.010053	0.135090	0.174537	0.037105	0.067153	0.109190	0.017023	0.196999	0.105586	-0.100400	0.227612	0.026772	0.006912	0.001247	0.235639	0.003495	0.094570	0.293339	-0.266915	-0.013901	0.207047	-0.299601	-0.043759	0.311854	-0.186930	-0.278456	0.359813	-0.146770	-0.232696	
247	2.4700	0.028591	0.098643	0.162240	0.022302	-0.116212	0.229131	0.001434	-0.000120	-0.003285	-0.003142	-0.142314	-0.072865	0.224365	-0.009977	0.134906	0.174534	0.037205	0.067077	0.109301	0.017026	0.196903	0.105805	-0.100380	0.227450	0.026773	0.006934	0.001156	0.235670	0.003649	0.094381	0.294388	-0.265628	-0.015306	0.207994	-0.298592	-0.045464	0.309037	-0.176298	-0.276695	0.356930	-0.137236	-0.229998	
248	2.4800	0.028635	0.098684	0.162188	0.022469	-0.116206	0.229020	0.001443	-0.000120	-0.003349	-0.003099	-0.142347	-0.072830	0.224511	-0.009883	0.134699	0.174526	0.037300	0.066982	0.109425	0.017052	0.196800	0.106025	-0.100326	0.227342	0.026765	0.006955	0.001059	0.235699	0.003801	0.094168	0.295482	-0.264355	-0.016684	0.208875	-0.297510	-0.047152	0.306103	-0.165922	-0.274644	0.353943	-0.127985	-0.227012	
249	2.4900	0.028686	0.098732	0.162121	0.022645	-0.116201	0.228897	0.001451	-0.000128	-0.003420	-0.003055	-0.142381	-0.072810	0.224667	-0.009779	0.134473	0.174518	0.037408	0.066872	0.109562	0.017094	0.196690	0.106245	-0.100249	0.227268	0.026756	0.006969	0.000967	0.235734	0.003964	0.093947	0.296563	-0.263111	-0.018050	0.209688	-0.296349	-0.048859	0.303016	-0.155781	-0.272266	0.350889	-0.119010	-0.223741	
250	2.5000	0.028745	0.098776	0.162035	0.022826	-0.116196	0.228762	0.001457	-0.000141	-0.003498	-0.003017	-0.142410	-0.072822	0.224821	-0.009681	0.134232	0.174524	0.037547	0.066753	0.109707	0.017140	0.196573	0.106472	-0.100160	0.227200	0.026748	0.006972	0.000884	0.235776	0.004137	0.093727	0.297554	-0.261921	-0.019431	0.210446	-0.295123	-0.050608	0.299756	-0.145865	-0.269545	0.347797	-0.110320	-0.220204	
251	2.5100	0.028812	0.098806	0.161932	0.023008	-0.116192	0.228620	0.001461	-0.000158	-0.003584	-0.002991	-0.142434	-0.072867	0.224974	-0.009598	0.133976	0.174557	0.037721	0.066628	0.109856	0.017180	0.196446	0.106707	-0.100071	0.227117	0.026745	0.006968	0.000804	0.235819	0.004306	0.093498	0.298445	-0.260790	-0.020831	0.211167	-0.293868	-0.052411	0.296358	-0.136200	-0.266518	0.344663	-0.101929	-0.216433	
252	2.5200	0.028886	0.098821	0.161818	0.023188	-0.116189	0.228472	0.001465	-0.000178	-0.003676	-0.002978	-0.142455	-0.072930	0.225134	-0.009533	0.133702	0.174610	0.037903	0.066489	0.110003	0.017204	0.196311	0.106949	-0.099993	0.227004	0.026753	0.006966	0.000723	0.235859	0.004458	0.093241	0.299287	-0.259702	-0.022236	0.211848	-0.292630	-0.054274	0.292862	-0.126821	-0.263231	0.341445	-0.093858	-0.212462	
253	2.5300	0.028964	0.098823	0.161700	0.023362	-0.116187	0.228321	0.001468	-0.000198	-0.003773	-0.002975	-0.142478	-0.072998	0.225304	-0.009481	0.133409	0.174659	0.038051	0.066335	0.110145	0.017214	0.196172	0.107191	-0.099928	0.226856	0.026771	0.006979	0.000643	0.235901	0.004587	0.092948	0.300122	-0.258632	-0.023644	0.212486	-0.291442	-0.056172	0.289273	-0.117743	-0.259683	0.338129	-0.086123	-0.208318	
254	2.5400	0.029048	0.098819	0.161582	0.023528	-0.116187	0.228171	0.001471	-0.000217	-0.003874	-0.002974	-0.142502	-0.073062	0.225475	-0.009438	0.133105	0.174694	0.038145	0.066169	0.110281	0.017214	0.196036	0.107425	-0.099874	0.226683	0.026793	0.007009	0.000565	0.235953	0.004698	0.092626	0.300960	-0.257563	-0.025062	0.213081	-0.290309	-0.058047	0.285594	-0.108979	-0.255882	0.334758	-0.078731	-0.204019	
255	2.5500	0.029136	0.098816	0.161468	0.023683	-0.116186	0.228026	0.001474	-0.000236	-0.003976	-0.002970	-0.142523	-0.073120	0.225638	-0.009401	0.132810	0.174715	0.038202	0.066001	0.110414	0.017211	0.195906	0.107644	-0.099826	0.226503	0.026809	0.007047	0.000482	0.236011	0.004801	0.092297	0.301800	-0.256491	-0.026499	0.213620	-0.289209	-0.059858	0.281850	-0.100548	-0.251869	0.331400	-0.071680	-0.199580	
256	2.5600	0.029228	0.098817	0.161356	0.023828	-0.116184	0.227889	0.001476	-0.000257	-0.004078	-0.002958	-0.142539	-0.073170	0.225794	-0.009361	0.132543	0.174728	0.038247	0.065843	0.110545	0.017212	0.195785	0.107843	-0.099782	0.226330	0.026802	0.007072	0.000377	0.236052	0.004900	0.091979	0.302647	-0.255413	-0.027957	0.214095	-0.288110	-0.061604	0.278086	-0.092483	-0.247685	0.328083	-0.064966	-0.195011	
